<svg width="422" height="91" viewBox="0 0 422 91" fill="none" xmlns="http://www.w3.org/2000/svg">
<path fill-rule="evenodd" clip-rule="evenodd" d="M26.927 38.8169C28.0868 39.4454 29.0594 40.37 29.7458 41.4965C30.4322 42.623 30.8078 43.9113 30.8345 45.2302C30.8612 46.5491 30.5379 47.8515 29.8976 49.0048C29.2574 50.1582 28.3229 51.1213 27.1895 51.7962C26.056 52.471 24.764 52.8335 23.4449 52.8468C22.1258 52.86 20.8267 52.5235 19.68 51.8715C18.5332 51.2195 17.5796 50.2753 16.9164 49.135C16.2531 47.9947 15.9038 46.6991 15.904 45.3799C15.8717 44.0959 16.1863 42.8269 16.8148 41.7067C17.4433 40.5865 18.3623 39.6566 19.475 39.0149C20.308 38.4649 21.38 37.5609 21.451 36.5029V23.3479C21.437 22.3599 20.308 21.3859 19.475 20.8219C18.3623 20.1803 17.4433 19.2504 16.8148 18.1302C16.1863 17.01 15.8717 15.741 15.904 14.4569C15.9069 12.6976 16.5303 10.9958 17.6644 9.65083C18.7984 8.30586 20.3705 7.40399 22.104 7.10392C22.4663 7.03147 22.8346 6.99363 23.204 6.99092H23.373C23.684 6.99092 23.994 7.01892 24.305 7.04692L24.333 7.06092C25.5224 7.15627 26.6662 7.56065 27.6513 8.234C28.6363 8.90735 29.4284 9.82632 29.949 10.8999C30.0996 11.3403 30.3717 11.729 30.734 12.0212C31.0962 12.3134 31.5338 12.497 31.996 12.5509H45.077C45.5617 12.5037 46.0244 12.325 46.4149 12.034C46.8055 11.743 47.1091 11.3509 47.293 10.8999C47.9215 9.74009 48.8461 8.7675 49.9726 8.08112C51.0991 7.39475 52.3874 7.01911 53.7063 6.99244C55.0252 6.96577 56.3276 7.28902 57.4809 7.92929C58.6343 8.56956 59.5974 9.50398 60.2723 10.6375C60.9471 11.7709 61.3096 13.063 61.3229 14.382C61.3361 15.7011 60.9996 17.0002 60.3476 18.147C59.6956 19.2937 58.7514 20.2473 57.6111 20.9106C56.4708 21.5738 55.1752 21.9231 53.856 21.9229C52.574 21.9532 51.3072 21.6392 50.1878 21.0136C49.0683 20.388 48.1371 19.4737 47.491 18.3659C46.941 17.5189 46.037 16.4469 44.979 16.3759H32.092C31.104 16.4039 30.314 17.5189 29.749 18.3659C29.0017 19.7944 27.7564 20.8992 26.249 21.4709C25.9669 21.6773 25.7344 21.944 25.5683 22.2516C25.4023 22.5591 25.3069 22.8998 25.289 23.2489V36.6009C25.3335 37.0846 25.5095 37.5468 25.7981 37.9375C26.0867 38.3281 26.4768 38.6323 26.926 38.8169H26.927ZM69.649 9.96792C70.5588 9.96792 71.4482 10.2377 72.2046 10.7432C72.9611 11.2486 73.5507 11.967 73.8989 12.8076C74.247 13.6481 74.3381 14.573 74.1606 15.4653C73.9831 16.3576 73.545 17.1773 72.9017 17.8206C72.2584 18.4639 71.4387 18.902 70.5464 19.0795C69.6541 19.257 68.7292 19.1659 67.8887 18.8178C67.0481 18.4696 66.3297 17.88 65.8242 17.1235C65.3188 16.3671 65.049 15.4777 65.049 14.5679C65.049 13.3479 65.5337 12.1779 66.3963 11.3152C67.259 10.4526 68.429 9.96792 69.649 9.96792ZM38.712 0.638916C39.6218 0.638916 40.5112 0.908701 41.2676 1.41416C42.0241 1.91961 42.6137 2.63803 42.9619 3.47857C43.31 4.31911 43.4011 5.24402 43.2236 6.13633C43.0461 7.02864 42.608 7.84829 41.9647 8.49161C41.3214 9.13493 40.5017 9.57304 39.6094 9.75053C38.7171 9.92802 37.7922 9.83692 36.9517 9.48876C36.1111 9.1406 35.3927 8.551 34.8873 7.79454C34.3818 7.03807 34.112 6.14871 34.112 5.23892C34.112 4.01892 34.5967 2.84889 35.4593 1.98622C36.322 1.12356 37.492 0.638916 38.712 0.638916ZM8.12702 10.0249C9.03681 10.0249 9.92617 10.2947 10.6826 10.8002C11.4391 11.3056 12.0287 12.024 12.3769 12.8646C12.725 13.7051 12.8161 14.63 12.6386 15.5223C12.4611 16.4146 12.023 17.2343 11.3797 17.8776C10.7364 18.5209 9.91674 18.959 9.02443 19.1365C8.13212 19.314 7.20721 19.2229 6.36667 18.8748C5.52613 18.5266 4.80771 17.937 4.30226 17.1805C3.7968 16.4241 3.52702 15.5347 3.52702 14.6249C3.52702 14.0208 3.646 13.4227 3.87717 12.8646C4.10834 12.3065 4.44717 11.7994 4.87432 11.3722C5.73699 10.5096 6.90702 10.0249 8.12702 10.0249ZM38.712 41.6249C39.4559 41.6263 40.1826 41.8482 40.8003 42.2626C41.4181 42.6771 41.899 43.2654 42.1824 43.9531C42.4658 44.6409 42.5388 45.3972 42.3924 46.1265C42.2459 46.8558 41.8864 47.5253 41.3595 48.0503C40.8325 48.5753 40.1617 48.9322 39.4319 49.076C38.702 49.2198 37.946 49.1439 37.2593 48.8579C36.5726 48.572 35.9861 48.0888 35.574 47.4696C35.1619 46.8503 34.9426 46.1228 34.944 45.3789C34.9472 44.3819 35.3457 43.4269 36.0521 42.7234C36.7584 42.0198 37.715 41.6241 38.712 41.6249ZM69.649 71.5189C70.5588 71.5189 71.4482 71.7887 72.2046 72.2942C72.9611 72.7996 73.5507 73.518 73.8989 74.3586C74.247 75.1991 74.3381 76.124 74.1606 77.0163C73.9831 77.9086 73.545 78.7283 72.9017 79.3716C72.2584 80.0149 71.4387 80.453 70.5464 80.6305C69.6541 80.808 68.7292 80.7169 67.8887 80.3688C67.0481 80.0206 66.3297 79.431 65.8242 78.6745C65.3188 77.9181 65.049 77.0287 65.049 76.1189C65.049 74.8989 65.5337 73.7289 66.3963 72.8662C67.259 72.0036 68.429 71.5189 69.649 71.5189ZM38.712 81.5539C39.6218 81.5539 40.5112 81.8237 41.2676 82.3292C42.0241 82.8346 42.6137 83.553 42.9619 84.3936C43.31 85.2341 43.4011 86.159 43.2236 87.0513C43.0461 87.9436 42.608 88.7633 41.9647 89.4066C41.3214 90.0499 40.5017 90.488 39.6094 90.6655C38.7171 90.843 37.7922 90.7519 36.9517 90.4038C36.1111 90.0556 35.3927 89.466 34.8873 88.7095C34.3818 87.9531 34.112 87.0637 34.112 86.1539C34.112 84.9339 34.5967 83.7639 35.4593 82.9012C36.322 82.0386 37.492 81.5539 38.712 81.5539ZM8.12702 71.5759C9.03681 71.5759 9.92617 71.8457 10.6826 72.3512C11.4391 72.8566 12.0287 73.575 12.3769 74.4156C12.725 75.2561 12.8161 76.181 12.6386 77.0733C12.4611 77.9656 12.023 78.7853 11.3797 79.4286C10.7364 80.0719 9.91674 80.51 9.02443 80.6875C8.13212 80.865 7.20721 80.7739 6.36667 80.4258C5.52613 80.0776 4.80771 79.488 4.30226 78.7315C3.7968 77.9751 3.52702 77.0857 3.52702 76.1759C3.52702 74.9559 4.01166 73.7859 4.87432 72.9232C5.73699 72.0606 6.90702 71.5759 8.12702 71.5759ZM45.527 33.5809C44.8994 34.7423 43.9752 35.7166 42.8486 36.4047C41.722 37.0928 40.4332 37.4701 39.1134 37.4982C37.7936 37.5263 36.4899 37.2042 35.335 36.5647C34.1802 35.9251 33.2154 34.991 32.5389 33.8574C31.8624 32.7238 31.4984 31.4312 31.4839 30.1111C31.4693 28.7911 31.8048 27.4908 32.4562 26.3425C33.1076 25.1943 34.0516 24.2392 35.1921 23.5744C36.3326 22.9096 37.6289 22.5589 38.949 22.5579C40.2333 22.5257 41.5027 22.8388 42.6247 23.4644C43.7468 24.0901 44.6803 25.0054 45.328 26.1149C45.878 26.9619 46.768 28.0339 47.84 28.1049H60.998C61.972 28.0909 62.96 26.9619 63.51 26.1149C64.1561 25.0071 65.0873 24.0928 66.2068 23.4672C67.3262 22.8416 68.593 22.5276 69.875 22.5579C71.6346 22.5548 73.3387 23.1732 74.6868 24.304C76.0349 25.4349 76.9402 27.0056 77.243 28.7389C77.3113 29.1066 77.3448 29.4799 77.343 29.8539V30.0229C77.3459 30.3295 77.3272 30.6359 77.287 30.9399V30.9819C77.1919 32.1733 76.7861 33.319 76.1101 34.3046C75.434 35.2902 74.5113 36.0813 73.434 36.5989C72.9988 36.7512 72.6148 37.0222 72.3256 37.3813C72.0363 37.7404 71.8532 38.1732 71.797 38.6309V51.7169C71.8414 52.2023 72.0172 52.6664 72.3057 53.0594C72.5941 53.4523 72.9842 53.7591 73.434 53.9469C74.5935 54.5757 75.5658 55.5004 76.2518 56.627C76.9378 57.7536 77.3131 59.0418 77.3395 60.3605C77.3659 61.6793 77.0425 62.9815 76.4021 64.1346C75.7618 65.2878 74.8274 66.2507 73.694 66.9254C72.5606 67.6001 71.2687 67.9625 69.9497 67.9757C68.6308 67.9889 67.3318 67.6524 66.1852 67.0005C65.0385 66.3486 64.085 65.4046 63.4217 64.2645C62.7584 63.1244 62.409 61.8289 62.409 60.5099C62.3797 59.2264 62.6956 57.9586 63.3238 56.8389C63.952 55.7192 64.8693 54.7888 65.98 54.1449C66.827 53.5799 67.885 52.6909 67.97 51.6329V38.7329C67.942 37.7589 66.827 36.9549 65.98 36.4039C64.5511 35.6571 63.4462 34.4116 62.875 32.9039C62.6674 32.6231 62.4005 32.3914 62.0932 32.2255C61.7858 32.0596 61.4457 31.9634 61.097 31.9439H47.749C47.2646 31.9857 46.8011 32.1608 46.41 32.4497C46.0189 32.7386 45.7154 33.1302 45.533 33.5809H45.527ZM69.873 57.1809C70.5324 57.1781 71.1778 57.3711 71.7274 57.7355C72.277 58.0998 72.7062 58.6191 72.9604 59.2275C73.2147 59.8359 73.2827 60.5061 73.1557 61.1531C73.0288 61.8002 72.7126 62.395 72.2473 62.8623C71.7821 63.3295 71.1886 63.6482 70.542 63.7779C69.8955 63.9075 69.225 63.8424 68.6155 63.5907C68.0061 63.339 67.485 62.912 67.1184 62.364C66.7517 61.8159 66.556 61.1713 66.556 60.5119C66.5547 59.63 66.9035 58.7836 67.5258 58.1586C68.1481 57.5337 68.9931 57.1813 69.875 57.1789L69.873 57.1809ZM42.283 30.0239C42.2816 30.6806 42.0858 31.3222 41.7201 31.8677C41.3545 32.4132 40.8354 32.8381 40.2285 33.0889C39.6216 33.3397 38.954 33.4051 38.3099 33.2769C37.6659 33.1487 37.0742 32.8325 36.6097 32.3684C36.1451 31.9042 35.8284 31.3129 35.6996 30.6689C35.5708 30.025 35.6356 29.3573 35.8859 28.7502C36.1361 28.143 36.5606 27.6236 37.1058 27.2575C37.6509 26.8913 38.2923 26.6949 38.949 26.6929C39.3868 26.6921 39.8205 26.7777 40.2251 26.9448C40.6298 27.1119 40.9975 27.3572 41.3072 27.6666C41.6169 27.976 41.8625 28.3435 42.03 28.748C42.1974 29.1525 42.2834 29.5861 42.283 30.0239ZM50.836 51.5619C49.6762 50.9334 48.7036 50.0089 48.0172 48.8823C47.3309 47.7558 46.9552 46.4675 46.9285 45.1486C46.9019 43.8298 47.2251 42.5274 47.8654 41.374C48.5057 40.2206 49.4401 39.2575 50.5736 38.5827C51.707 37.9078 52.9991 37.5453 54.3181 37.5321C55.6372 37.5188 56.9363 37.8554 58.0831 38.5073C59.2298 39.1593 60.1834 40.1035 60.8467 41.2438C61.5099 42.3841 61.8592 43.6798 61.859 44.9989C61.8913 46.283 61.5767 47.552 60.9482 48.6722C60.3197 49.7924 59.4007 50.7223 58.288 51.3639C57.455 51.9289 56.383 52.8179 56.312 53.8759V67.0449C56.326 68.0189 57.455 68.9929 58.288 69.5569C59.4007 70.1986 60.3197 71.1285 60.9482 72.2487C61.5767 73.3689 61.8913 74.6379 61.859 75.9219C61.8592 77.6792 61.2393 79.3802 60.1084 80.7253C58.9775 82.0704 57.4082 82.9733 55.677 83.2749C55.3096 83.3467 54.9364 83.3845 54.562 83.3879H54.393C54.082 83.3879 53.772 83.3599 53.461 83.3319H53.449L53.435 83.3179C52.2455 83.2227 51.1014 82.8184 50.1162 82.1451C49.131 81.4717 48.3388 80.5526 47.818 79.4789C47.6694 79.038 47.3973 78.6491 47.0341 78.3584C46.6708 78.0676 46.2318 77.8873 45.769 77.8389H32.685C32.2002 77.881 31.7366 78.0565 31.3454 78.346C30.9543 78.6355 30.6509 79.0276 30.469 79.4789C29.8405 80.6387 28.916 81.6113 27.7894 82.2977C26.6629 82.9841 25.3746 83.3597 24.0557 83.3864C22.7369 83.4131 21.4345 83.0898 20.2811 82.4495C19.1277 81.8093 18.1646 80.8748 17.4898 79.7414C16.8149 78.6079 16.4524 77.3159 16.4392 75.9968C16.4259 74.6777 16.7625 73.3786 17.4144 72.2319C18.0664 71.0851 19.0106 70.1315 20.1509 69.4683C21.2912 68.805 22.5869 68.4557 23.906 68.4559C25.1884 68.4239 26.4558 68.7372 27.5755 69.3629C28.6953 69.9887 29.6263 70.904 30.271 72.0129C30.821 72.8599 31.725 73.9329 32.783 74.0029H45.683C46.657 73.9889 47.461 72.8599 48.012 72.0129C48.7593 70.5844 50.0046 69.4797 51.512 68.9079C51.7953 68.7027 52.0288 68.4363 52.195 68.1285C52.3612 67.8207 52.4559 67.4794 52.472 67.1299V53.7779C52.4254 53.2949 52.2485 52.8337 51.9602 52.4434C51.6719 52.0531 51.284 51.7484 50.836 51.5619ZM57.611 75.9229C57.611 76.5817 57.4157 77.2257 57.0496 77.7735C56.6836 78.3213 56.1634 78.7482 55.5547 79.0004C54.9461 79.2525 54.2763 79.3184 53.6302 79.1899C52.984 79.0614 52.3905 78.7441 51.9246 78.2783C51.4588 77.8124 51.1415 77.2189 51.013 76.5728C50.8845 75.9266 50.9505 75.2569 51.2026 74.6482C51.4547 74.0395 51.8816 73.5193 52.4294 73.1533C52.9772 72.7873 53.6212 72.5919 54.28 72.5919C55.1628 72.5938 56.0089 72.9453 56.633 73.5696C57.2571 74.194 57.6094 75.0401 57.611 75.9229ZM32.276 57.2919C32.9045 56.1321 33.8291 55.1595 34.9556 54.4731C36.0821 53.7868 37.3704 53.4111 38.6893 53.3844C40.0082 53.3578 41.3106 53.681 42.4639 54.3213C43.6173 54.9616 44.5804 55.896 45.2553 57.0294C45.9301 58.1629 46.2926 59.455 46.3059 60.774C46.3191 62.0931 45.9826 63.3922 45.3306 64.539C44.6786 65.6857 43.7344 66.6393 42.5941 67.3026C41.4538 67.9658 40.1582 68.3151 38.839 68.3149C37.555 68.3472 36.286 68.0326 35.1658 67.4041C34.0456 66.7756 33.1157 65.8566 32.474 64.7439C31.909 63.9109 31.02 62.8389 29.962 62.7679H16.793C15.819 62.7819 14.845 63.9109 14.281 64.7439C13.6394 65.8566 12.7095 66.7756 11.5893 67.4041C10.4691 68.0326 9.20006 68.3472 7.91602 68.3149C6.15854 68.3153 4.45729 67.6955 3.112 66.5646C1.76671 65.4337 0.863681 63.8643 0.562015 62.1329C0.490214 61.7655 0.452388 61.3923 0.449015 61.0179V60.8489C0.446153 60.5423 0.464866 60.2359 0.505015 59.9319V59.8889C0.602922 58.6982 1.00998 57.5536 1.68592 56.5685C2.36186 55.5833 3.28327 54.7917 4.35902 54.2719C4.79906 54.123 5.18717 53.851 5.47731 53.4882C5.76746 53.1254 5.94747 52.6869 5.99602 52.2249V39.1389C5.95158 38.6556 5.77547 38.1938 5.48685 37.8036C5.19822 37.4134 4.80814 37.1099 4.35902 36.9259C3.19919 36.2974 2.2266 35.3729 1.54022 34.2463C0.853851 33.1198 0.478212 31.8315 0.451541 30.5126C0.424871 29.1938 0.748122 27.8914 1.38839 26.738C2.02866 25.5846 2.96308 24.6215 4.09655 23.9467C5.23002 23.2718 6.52205 22.9093 7.84115 22.8961C9.16024 22.8828 10.4593 23.2194 11.6061 23.8713C12.7528 24.5233 13.7064 25.4675 14.3697 26.6078C15.0329 27.7481 15.3822 29.0438 15.382 30.3629C15.4143 31.647 15.0997 32.916 14.4712 34.0362C13.8427 35.1564 12.9237 36.0863 11.811 36.7279C10.978 37.2929 9.90602 38.1819 9.83502 39.2399V52.1389C9.84902 53.1129 10.978 53.9169 11.811 54.4679C13.2461 55.2067 14.3535 56.455 14.916 57.9679C15.1253 58.2503 15.3945 58.4829 15.7044 58.6489C16.0142 58.8149 16.357 58.9102 16.708 58.9279H30.049C30.5352 58.8863 31.0006 58.7114 31.394 58.4227C31.7873 58.1339 32.0936 57.7423 32.279 57.2909L32.276 57.2919ZM7.91502 64.0669C7.25621 64.0663 6.61237 63.8704 6.06492 63.5039C5.51747 63.1374 5.09099 62.6167 4.83943 62.0079C4.58786 61.399 4.5225 60.7292 4.65161 60.0831C4.78072 59.4371 5.0985 58.8439 5.56477 58.3784C6.03103 57.913 6.62485 57.5963 7.27111 57.4683C7.91738 57.3404 8.58707 57.407 9.19551 57.6596C9.80394 57.9123 10.3238 58.3397 10.6893 58.8878C11.0548 59.4359 11.2496 60.0801 11.249 60.7389C11.249 61.1765 11.1627 61.6097 10.9951 62.0139C10.8275 62.418 10.5818 62.7852 10.2721 63.0943C9.96248 63.4034 9.59489 63.6484 9.19043 63.8153C8.78596 63.9822 8.35256 64.0677 7.91502 64.0669ZM50.539 14.4569C50.5404 13.7995 50.7367 13.1572 51.1031 12.6114C51.4695 12.0655 51.9895 11.6406 52.5974 11.3903C53.2054 11.14 53.8738 11.0756 54.5184 11.2052C55.1629 11.3348 55.7545 11.6526 56.2184 12.1185C56.6823 12.5843 56.9976 13.1772 57.1245 13.8223C57.2514 14.4674 57.1842 15.1356 56.9313 15.7424C56.6784 16.3493 56.2513 16.8675 55.7039 17.2316C55.1565 17.5957 54.5134 17.7893 53.856 17.7879C52.9745 17.7858 52.1299 17.4337 51.5079 16.8091C50.8859 16.1845 50.5374 15.3384 50.539 14.4569ZM23.37 42.0489C24.0288 42.0489 24.6728 42.2443 25.2206 42.6103C25.7684 42.9763 26.1953 43.4965 26.4475 44.1052C26.6996 44.7139 26.7655 45.3836 26.637 46.0298C26.5085 46.6759 26.1912 47.2694 25.7254 47.7353C25.2595 48.2011 24.666 48.5184 24.0199 48.6469C23.3737 48.7754 22.704 48.7095 22.0953 48.4574C21.4866 48.2052 20.9664 47.7783 20.6004 47.2305C20.2344 46.6827 20.039 46.0387 20.039 45.3799C20.0406 44.497 20.3921 43.6506 21.0164 43.0263C21.6407 42.402 22.4871 42.0505 23.37 42.0489Z" fill="url(#paint0_linear_1_28)"/>
<path d="M93.7559 31.4919H109.446V36.8259H104.266V59.9029H98.7759V36.8259H93.7559V31.4919ZM113.332 31.4919H118.752V49.8679C118.687 51.004 118.83 52.1423 119.175 53.2269C119.449 53.8846 119.93 54.4348 120.546 54.7939C121.246 55.2059 122.049 55.4114 122.861 55.3869C123.727 55.4136 124.582 55.1828 125.317 54.7239C125.965 54.3398 126.47 53.7554 126.757 53.0589C127.088 51.798 127.223 50.4938 127.157 49.1919V31.4919H132.577V48.4259C132.653 50.4186 132.492 52.4132 132.097 54.3679C131.695 55.5825 131.042 56.699 130.181 57.6448C129.319 58.5907 128.269 59.3447 127.097 59.8579C125.787 60.3793 124.386 60.6336 122.976 60.6059C121.087 60.647 119.224 60.1582 117.599 59.1949C116.182 58.3567 115.043 57.1195 114.325 55.6379C113.676 54.2119 113.337 51.8129 113.337 48.4259V31.4919H113.332ZM139.302 31.4919H144.425L156.662 50.1789V31.4919H162.039V59.9029H156.873L144.679 41.2589V59.9029H139.302V31.4919ZM177.607 31.4919H183.055L193.979 59.9029H188.362L186.146 54.0459H174.502L172.23 59.9029H166.613L177.608 31.4919H177.607ZM180.331 39.0429L176.478 48.8259H184.17L180.331 39.0449V39.0429ZM198.538 31.4919H204.282C206.555 31.3701 208.831 31.6619 211 32.3529C212.354 32.9048 213.492 33.8801 214.246 35.1329C215.066 36.5241 215.477 38.1185 215.432 39.7329C215.499 41.5158 214.945 43.2667 213.865 44.6869C212.787 46.0337 211.301 46.9947 209.631 47.4259C207.749 47.7952 205.831 47.9422 203.915 47.8639V59.9029H198.538V31.4919ZM203.915 42.6139H205.651C206.611 42.6616 207.573 42.5604 208.502 42.3139C209.011 42.133 209.45 41.7973 209.758 41.3539C210.067 40.8699 210.224 40.3048 210.21 39.7309C210.242 39.249 210.139 38.7677 209.912 38.3414C209.685 37.915 209.343 37.5605 208.926 37.3179C207.832 36.8494 206.64 36.6554 205.454 36.7529H203.916L203.915 42.6139ZM258.315 36.4739L254.532 40.0739C253.448 38.8218 252.112 37.8126 250.612 37.1121C249.111 36.4116 247.48 36.0357 245.824 36.0089C244.553 35.9909 243.292 36.2274 242.115 36.7045C240.937 37.1815 239.867 37.8894 238.967 38.7865C238.068 39.6836 237.357 40.7517 236.876 41.9279C236.396 43.104 236.156 44.3645 236.17 45.6349C236.137 47.3925 236.56 49.1286 237.398 50.6739C238.215 52.1335 239.428 53.3323 240.898 54.1319C242.435 54.9802 244.167 55.4131 245.923 55.3879C247.402 55.4045 248.868 55.1062 250.223 54.5129C251.832 53.7047 253.287 52.6218 254.523 51.3129L258.193 55.1519C256.489 56.9301 254.47 58.3754 252.237 59.4139C250.21 60.2477 248.034 60.6562 245.843 60.6139C243.843 60.6874 241.849 60.3524 239.982 59.6292C238.116 58.906 236.417 57.8099 234.989 56.4079C233.587 54.9992 232.489 53.3179 231.764 51.468C231.038 49.6181 230.699 47.6389 230.769 45.6529C230.722 43.0077 231.39 40.399 232.703 38.1019C234.014 35.8616 235.917 34.0256 238.203 32.7949C240.557 31.4654 243.219 30.7758 245.923 30.7949C248.273 30.8001 250.595 31.3107 252.731 32.2921C254.866 33.2735 256.766 34.7028 258.301 36.4829L258.315 36.4739ZM276.846 30.7859C278.78 30.7631 280.697 31.1385 282.479 31.8887C284.262 32.639 285.871 33.7481 287.206 35.1469C288.614 36.53 289.724 38.1861 290.469 40.0137C291.214 41.8412 291.578 43.8017 291.539 45.7749C291.58 47.7286 291.222 49.67 290.486 51.4804C289.751 53.2909 288.654 54.9322 287.262 56.3039C285.877 57.6785 284.235 58.7663 282.429 59.5048C280.623 60.2434 278.689 60.6181 276.738 60.6076C274.787 60.5971 272.858 60.2016 271.06 59.4437C269.262 58.6857 267.632 57.5803 266.262 56.1909C263.995 53.8349 262.551 50.8096 262.144 47.5658C261.737 44.3221 262.39 41.0337 264.004 38.1909C265.307 35.9385 267.179 34.0685 269.433 32.7687C271.687 31.4689 274.244 30.7851 276.846 30.7859ZM276.775 36.0789C275.543 36.0501 274.318 36.2796 273.18 36.7528C272.041 37.2259 271.015 37.9321 270.166 38.8259C269.272 39.7445 268.574 40.8347 268.113 42.0305C267.652 43.2263 267.438 44.5031 267.484 45.7839C267.447 47.0364 267.664 48.2835 268.12 49.4506C268.576 50.6177 269.262 51.681 270.138 52.5769C271.014 53.4729 272.062 54.1832 273.218 54.6655C274.375 55.1477 275.617 55.3921 276.87 55.3839C278.09 55.398 279.3 55.1581 280.423 54.6796C281.545 54.201 282.556 53.4941 283.391 52.6039C284.275 51.7009 284.969 50.63 285.433 49.4544C285.897 48.2788 286.12 47.0223 286.091 45.7589C286.12 44.4893 285.894 43.2267 285.426 42.0461C284.958 40.8655 284.258 39.7909 283.367 38.8859C282.524 37.9844 281.503 37.2689 280.368 36.7852C279.233 36.3015 278.01 36.0602 276.776 36.0769L276.775 36.0789ZM297.113 31.4919H302.246L314.483 50.1789V31.4919H319.86V59.9029H314.694L302.501 41.2589V59.9029H297.109V31.4919H297.113ZM326.78 31.4919H331.903L344.14 50.1789V31.4919H349.532V59.9029H344.346L332.154 41.2589V59.9029H326.777V31.4919H326.78ZM356.433 31.4919H371.946V36.7989H361.826V41.8989H371.946V47.1159H361.826V54.5959H371.946V59.9029H356.43V31.4919H356.433ZM403.475 36.4739L399.692 40.0739C398.608 38.8218 397.272 37.8126 395.772 37.1121C394.271 36.4116 392.64 36.0357 390.984 36.0089C389.714 35.9909 388.452 36.2274 387.275 36.7045C386.097 37.1815 385.027 37.8894 384.127 38.7865C383.228 39.6836 382.517 40.7517 382.036 41.9279C381.556 43.104 381.316 44.3645 381.33 45.6349C381.297 47.3925 381.72 49.1286 382.558 50.6739C383.379 52.1305 384.591 53.3283 386.058 54.1319C387.595 54.9802 389.327 55.4131 391.083 55.3879C392.568 55.405 394.04 55.1068 395.402 54.5129C397.006 53.7009 398.457 52.6183 399.693 51.3129L403.363 55.1519C401.659 56.9301 399.64 58.3754 397.407 59.4139C395.38 60.2477 393.204 60.6562 391.013 60.6139C389.013 60.6874 387.019 60.3524 385.153 59.6292C383.286 58.906 381.587 57.8099 380.159 56.4079C378.757 54.9992 377.659 53.3179 376.934 51.468C376.208 49.6181 375.869 47.6389 375.939 45.6529C375.892 43.0077 376.56 40.399 377.873 38.1019C379.184 35.8616 381.087 34.0256 383.373 32.7949C385.727 31.4654 388.389 30.7758 391.093 30.7949C393.443 30.8001 395.765 31.3107 397.901 32.2921C400.036 33.2735 401.936 34.7028 403.471 36.4829L403.475 36.4739ZM405.846 31.4919H421.555V36.8259H416.375V59.9029H410.875V36.8259H405.846V31.4919Z" fill="black"/>
<defs>
<linearGradient id="paint0_linear_1_28" x1="17.6731" y1="9.65041" x2="74.9975" y2="63.7341" gradientUnits="userSpaceOnUse">
<stop stop-color="#157AFC"/>
<stop offset="1" stop-color="#1DF09C"/>
</linearGradient>
</defs>
</svg>
