<svg width="932" height="1080" viewBox="0 0 932 1080" fill="none" xmlns="http://www.w3.org/2000/svg">
<path fill-rule="evenodd" clip-rule="evenodd" d="M321.2 456.757C348.862 471.1 368.5 501.836 368.5 536.157C368.5 560.114 358.983 583.09 342.043 600.03C325.103 616.97 302.127 626.487 278.17 626.487C254.214 626.487 231.238 616.97 214.298 600.03C197.358 583.09 187.841 560.114 187.841 536.157C187.841 503.543 203.041 475.539 231.041 459.147C241.116 452.488 254.093 441.559 254.947 428.753V269.609C254.776 257.656 241.116 245.874 231.041 239.044C203.041 222.652 187.841 194.644 187.841 162.034C187.874 140.756 195.408 120.171 209.118 103.9C222.829 87.6279 241.838 76.7117 262.802 73.071C267.188 72.1942 271.648 71.7368 276.121 71.705H278.17C281.927 71.705 285.683 72.047 289.44 72.388L289.782 72.559C323.762 76.316 345.107 94.586 357.742 119.004C362.182 127.883 369.353 138.812 382.501 138.982H540.791C554.281 138.811 563.16 127.882 567.6 119.004C581.943 91.342 612.679 71.704 647 71.704C670.957 71.704 693.932 81.2208 710.873 98.1609C727.813 115.101 737.329 138.077 737.329 162.033C737.329 185.99 727.813 208.966 710.873 225.906C693.932 242.846 670.957 252.363 647 252.363C614.557 252.363 586.382 237.163 569.99 209.333C563.331 199.088 552.402 186.11 539.596 185.257H383.696C371.743 185.599 362.181 199.088 355.351 209.333C344.764 227.265 331.958 240.065 313.004 246.899C306.857 252.022 301.393 259.193 301.393 268.414V429.948C301.393 443.438 312.493 452.317 321.201 456.757H321.2ZM838.075 107.734C849.085 107.734 859.847 110.999 869.001 117.115C878.156 123.232 885.29 131.926 889.504 142.098C893.717 152.269 894.819 163.462 892.671 174.26C890.523 185.058 885.222 194.977 877.437 202.762C869.652 210.547 859.733 215.848 848.935 217.996C838.137 220.144 826.944 219.042 816.773 214.829C806.601 210.615 797.907 203.481 791.79 194.326C785.674 185.172 782.409 174.41 782.409 163.4C782.412 148.637 788.277 134.48 798.716 124.041C809.155 113.602 823.312 107.737 838.075 107.734ZM463.78 -5.13501C474.79 -5.13501 485.552 -1.87026 494.706 4.2464C503.861 10.3631 510.995 19.0569 515.209 29.2285C519.422 39.4002 520.524 50.5927 518.376 61.3909C516.228 72.189 510.927 82.1078 503.142 89.8928C495.357 97.6778 485.438 102.979 474.64 105.127C463.842 107.275 452.649 106.173 442.478 101.96C432.306 97.7464 423.612 90.6116 417.495 81.4574C411.379 72.3031 408.114 61.5407 408.114 50.531C408.117 35.7683 413.982 21.6109 424.421 11.1721C434.86 0.733286 449.017 -5.13236 463.78 -5.13501ZM93.755 108.417C104.765 108.417 115.527 111.682 124.681 117.798C133.836 123.915 140.97 132.609 145.184 142.781C149.397 152.952 150.499 164.145 148.351 174.943C146.203 185.741 140.902 195.66 133.117 203.445C125.332 211.23 115.413 216.531 104.615 218.679C93.8167 220.827 82.6242 219.725 72.4525 215.512C62.2809 211.298 53.587 204.164 47.4704 195.009C41.3537 185.855 38.089 175.093 38.089 164.083C38.0916 149.32 43.9573 135.163 54.3961 124.724C64.8349 114.285 78.9923 108.42 93.755 108.417ZM463.781 490.737C472.781 490.754 481.574 493.439 489.048 498.454C496.522 503.468 502.341 510.586 505.77 518.908C509.198 527.229 510.082 536.381 508.31 545.205C506.537 554.029 502.188 562.129 495.812 568.481C489.436 574.833 481.319 579.152 472.489 580.891C463.658 582.63 454.51 581.712 446.202 578.252C437.893 574.793 430.797 568.947 425.811 561.454C420.825 553.961 418.172 545.158 418.189 536.158C418.222 524.092 423.042 512.533 431.589 504.017C440.137 495.502 451.714 490.725 463.78 490.737H463.781ZM838.075 852.395C849.084 852.395 859.847 855.66 869.001 861.776C878.155 867.893 885.29 876.586 889.503 886.758C893.717 896.929 894.819 908.121 892.672 918.919C890.524 929.717 885.223 939.636 877.438 947.421C869.654 955.207 859.735 960.509 848.937 962.657C838.139 964.805 826.947 963.703 816.775 959.491C806.604 955.278 797.909 948.144 791.792 938.99C785.675 929.837 782.41 919.075 782.409 908.065C782.411 893.302 788.276 879.143 798.715 868.704C809.154 858.264 823.312 852.398 838.075 852.395ZM463.78 973.802C474.79 973.802 485.552 977.067 494.707 983.184C503.861 989.3 510.996 997.994 515.209 1008.17C519.422 1018.34 520.524 1029.53 518.376 1040.33C516.228 1051.13 510.926 1061.05 503.141 1068.83C495.355 1076.62 485.436 1081.92 474.638 1084.06C463.84 1086.21 452.647 1085.11 442.475 1080.9C432.304 1076.68 423.61 1069.55 417.494 1060.39C411.378 1051.24 408.113 1040.47 408.114 1029.46C408.117 1014.7 413.983 1000.55 424.422 990.108C434.861 979.67 449.018 973.805 463.78 973.802ZM93.755 853.078C104.765 853.078 115.527 856.343 124.681 862.459C133.835 868.576 140.97 877.27 145.184 887.441C149.397 897.613 150.499 908.805 148.351 919.604C146.204 930.402 140.902 940.32 133.117 948.105C125.332 955.891 115.414 961.192 104.615 963.34C93.8174 965.488 82.6249 964.386 72.4532 960.173C62.2816 955.96 53.5877 948.825 47.4709 939.671C41.3541 930.517 38.0892 919.755 38.089 908.745C38.0914 893.982 43.9569 879.824 54.3957 869.385C64.8346 858.946 78.9921 853.081 93.755 853.078ZM546.255 393.406C531.912 421.068 501.005 440.706 466.683 440.706C454.821 440.706 443.075 438.37 432.116 433.83C421.156 429.291 411.199 422.637 402.811 414.249C394.423 405.861 387.769 395.904 383.23 384.944C378.69 373.985 376.354 362.239 376.354 350.377C376.354 338.515 378.69 326.769 383.23 315.81C387.769 304.85 394.423 294.893 402.811 286.505C411.199 278.117 421.156 271.463 432.116 266.924C443.075 262.384 454.821 260.048 466.683 260.048C499.297 260.048 527.472 275.248 543.864 303.078C550.523 313.323 561.281 326.301 574.258 327.154H733.402C745.184 326.983 757.137 313.323 763.796 303.078C780.188 275.245 808.363 260.048 840.806 260.048C862.094 260.013 882.711 267.497 899.019 281.181C915.327 294.865 926.278 313.868 929.94 334.839C930.763 339.288 931.164 343.805 931.14 348.329V350.378C931.173 354.089 930.945 357.799 930.457 361.478V361.99C926.7 395.97 908.43 417.315 883.841 429.95C875.133 434.39 864.204 441.561 864.033 454.539V612.829C864.033 626.319 875.133 635.369 883.841 639.808C911.503 653.981 931.141 684.887 931.141 719.208C931.141 743.165 921.624 766.141 904.684 783.081C887.744 800.021 864.768 809.537 840.811 809.537C816.855 809.537 793.879 800.021 776.939 783.081C759.999 766.141 750.482 743.165 750.482 719.208C750.482 686.594 765.85 658.59 793.682 642.198C803.927 635.368 816.734 624.61 817.758 611.804V455.732C817.417 443.95 803.927 434.217 793.682 427.557C775.582 416.799 762.946 404.164 756.116 385.21C750.993 379.063 743.651 373.599 734.601 373.599H573.064C559.574 373.599 550.695 384.527 546.256 393.407L546.255 393.406ZM840.807 678.906C848.785 678.872 856.593 681.206 863.243 685.614C869.893 690.021 875.086 696.303 878.162 703.664C881.239 711.024 882.062 719.133 880.527 726.962C878.991 734.79 875.167 741.987 869.538 747.641C863.909 753.294 856.728 757.149 848.906 758.719C841.084 760.288 832.972 759.5 825.598 756.455C818.224 753.41 811.92 748.244 807.484 741.613C803.048 734.982 800.68 727.184 800.68 719.206C800.671 708.545 804.89 698.316 812.412 690.761C819.935 683.207 830.146 678.944 840.807 678.908V678.906ZM506.981 350.376C506.964 358.322 504.593 366.085 500.168 372.684C495.742 379.284 489.461 384.425 482.117 387.458C474.772 390.49 466.694 391.279 458.902 389.725C451.109 388.171 443.952 384.342 438.333 378.724C432.715 373.105 428.886 365.948 427.332 358.155C425.778 350.363 426.567 342.285 429.599 334.94C432.632 327.596 437.773 321.315 444.373 316.889C450.972 312.464 458.735 310.093 466.681 310.076C471.975 310.071 477.217 311.11 482.109 313.134C487.001 315.157 491.445 318.126 495.188 321.869C498.931 325.612 501.9 330.056 503.923 334.948C505.947 339.84 506.986 345.082 506.981 350.376ZM610.459 610.948C582.797 596.605 563.159 565.869 563.159 531.548C563.159 507.591 572.676 484.615 589.616 467.675C606.556 450.735 629.532 441.218 653.488 441.218C677.445 441.218 700.421 450.735 717.361 467.675C734.301 484.615 743.818 507.591 743.818 531.548C743.818 564.162 728.618 592.166 700.618 608.558C690.544 615.388 677.566 626.146 676.712 638.952V798.265C676.883 810.047 690.543 821.829 700.618 828.659C728.618 845.051 743.818 873.059 743.818 905.669C743.822 926.93 736.323 947.511 722.641 963.785C708.959 980.06 689.973 990.983 669.027 994.632C664.582 995.5 660.066 995.958 655.537 995.998H653.488C649.731 995.998 645.975 995.657 642.218 995.315H642.047L641.876 995.144C607.896 991.387 586.551 973.117 573.916 948.699C569.476 939.82 562.305 928.891 549.157 928.891H390.864C377.374 928.891 368.495 939.819 364.056 948.699C349.713 976.361 318.977 995.999 284.656 995.999C260.699 995.999 237.723 986.482 220.783 969.542C203.843 952.602 194.326 929.626 194.326 905.669C194.326 881.713 203.843 858.737 220.783 841.797C237.723 824.857 260.699 815.34 284.656 815.34C317.27 815.34 345.274 830.54 361.666 858.37C368.325 868.615 379.254 881.593 392.06 882.447H548.13C559.912 882.276 569.645 868.616 576.305 858.37C586.892 840.441 599.698 827.634 618.652 820.804C624.799 815.852 630.263 808.51 630.263 799.289V637.757C630.263 624.438 619.163 615.388 610.455 610.948H610.459ZM692.421 905.671C692.421 913.642 690.057 921.433 685.629 928.06C681.201 934.688 674.907 939.853 667.543 942.903C660.179 945.954 652.076 946.752 644.259 945.197C636.441 943.642 629.261 939.803 623.625 934.167C617.989 928.531 614.15 921.351 612.595 913.533C611.04 905.716 611.838 897.613 614.889 890.249C617.939 882.885 623.104 876.591 629.731 872.163C636.359 867.735 644.15 865.371 652.121 865.371C662.803 865.39 673.043 869.642 680.596 877.196C688.15 884.749 692.402 894.989 692.421 905.671ZM385.921 680.271C400.094 652.609 431 632.971 465.321 632.971C477.183 632.971 488.929 635.307 499.889 639.847C510.848 644.386 520.806 651.04 529.194 659.428C537.581 667.816 544.235 677.774 548.775 688.733C553.314 699.692 555.65 711.438 555.65 723.3C555.65 735.163 553.314 746.909 548.775 757.868C544.235 768.827 537.581 778.785 529.194 787.173C520.806 795.561 510.848 802.215 499.889 806.754C488.929 811.294 477.183 813.63 465.321 813.63C432.707 813.63 404.703 798.43 388.311 770.43C381.481 760.356 370.723 747.378 357.917 746.524H198.598C186.816 746.695 175.034 760.355 168.204 770.43C151.812 798.43 123.804 813.63 91.194 813.63C69.9332 813.635 49.3529 806.136 33.0785 792.455C16.8041 778.774 5.87976 759.789 2.22998 738.844C1.36151 734.399 0.904249 729.883 0.86398 725.354V723.305C0.830904 719.594 1.05913 715.884 1.54698 712.205V711.693C5.47398 677.713 23.574 656.365 48.164 643.733C57.043 639.293 67.972 632.122 67.972 618.974V460.684C67.972 447.365 57.044 438.315 48.164 433.876C20.501 419.703 0.86398 388.796 0.86398 354.474C0.86398 330.517 10.3808 307.541 27.3209 290.601C44.2609 273.661 67.2366 264.145 91.1935 264.145C115.15 264.145 138.126 273.661 155.066 290.601C172.006 307.541 181.523 330.517 181.523 354.474C181.523 387.088 166.323 415.092 138.323 431.484C128.248 438.314 115.271 449.072 114.417 461.879V617.949C114.588 629.731 128.248 639.464 138.323 646.124C156.423 656.711 169.23 669.517 175.889 688.471C181.012 694.618 188.354 700.082 197.575 700.082H358.937C372.426 700.082 381.476 689.154 385.916 680.275L385.921 680.271ZM91.193 762.237C83.2224 762.237 75.4308 759.873 68.8035 755.445C62.1762 751.017 57.0108 744.723 53.9606 737.359C50.9104 729.995 50.1123 721.892 51.6673 714.075C53.2223 706.257 57.0605 699.077 62.6966 693.441C68.3326 687.805 75.5134 683.966 83.3308 682.411C91.1483 680.856 99.2513 681.654 106.615 684.705C113.979 687.755 120.273 692.92 124.701 699.547C129.129 706.175 131.493 713.966 131.493 721.937C131.498 727.231 130.459 732.473 128.435 737.365C126.412 742.256 123.443 746.701 119.7 750.444C115.957 754.187 111.512 757.156 106.621 759.179C101.729 761.203 96.4866 762.242 91.193 762.237ZM606.872 162.037C606.889 154.084 609.264 146.314 613.697 139.711C618.13 133.107 624.422 127.967 631.776 124.939C639.131 121.911 647.218 121.132 655.015 122.701C662.812 124.269 669.969 128.114 675.581 133.75C681.193 139.386 685.007 146.56 686.542 154.364C688.077 162.167 687.263 170.251 684.204 177.593C681.144 184.934 675.977 191.203 669.354 195.608C662.732 200.012 654.952 202.354 646.999 202.337C636.334 202.31 626.117 198.05 618.593 190.492C611.068 182.935 606.853 172.699 606.873 162.034L606.872 162.037ZM278.172 495.863C286.143 495.863 293.934 498.227 300.561 502.655C307.189 507.083 312.354 513.377 315.404 520.741C318.455 528.105 319.253 536.208 317.698 544.025C316.143 551.843 312.304 559.023 306.668 564.659C301.032 570.295 293.852 574.134 286.034 575.689C278.217 577.244 270.114 576.446 262.75 573.395C255.386 570.345 249.092 565.18 244.664 558.552C240.236 551.925 237.872 544.134 237.872 536.163C237.89 525.48 242.142 515.24 249.695 507.686C257.248 500.132 267.487 495.879 278.17 495.859L278.172 495.863Z" fill="#1C4961" fill-opacity="0.03"/>
</svg>
